<mxfile host="app.diagrams.net" modified="2022-08-05T08:20:26.906Z" agent="5.0 (Windows NT 10.0; Win64; x64) AppleWebKit/537.36 (KHTML, like Gecko) Chrome/103.0.0.0 Safari/537.36" etag="utjZfN-oDYv2foHCXo-R" version="20.2.3" type="github">
  <diagram id="r1D1dJENe8DaUUhSV6lZ" name="Page-1">
    <mxGraphModel dx="1022" dy="436" grid="1" gridSize="10" guides="1" tooltips="1" connect="1" arrows="1" fold="1" page="1" pageScale="1" pageWidth="1100" pageHeight="850" math="0" shadow="0">
      <root>
        <mxCell id="0" />
        <mxCell id="1" parent="0" />
        <mxCell id="YMvfDlWYR4Z5YncBcECR-12" value="" style="rounded=0;whiteSpace=wrap;html=1;" vertex="1" parent="1">
          <mxGeometry x="30" y="30" width="830" height="280" as="geometry" />
        </mxCell>
        <mxCell id="YMvfDlWYR4Z5YncBcECR-4" style="edgeStyle=orthogonalEdgeStyle;rounded=0;orthogonalLoop=1;jettySize=auto;html=1;entryX=0;entryY=0.5;entryDx=0;entryDy=0;entryPerimeter=0;" edge="1" parent="1" source="T1c_7D-QfAOjgBCOR89R-1" target="YMvfDlWYR4Z5YncBcECR-3">
          <mxGeometry relative="1" as="geometry" />
        </mxCell>
        <mxCell id="T1c_7D-QfAOjgBCOR89R-1" value="Svc1" style="rounded=1;whiteSpace=wrap;html=1;fontStyle=1;fillColor=#dae8fc;strokeColor=#6c8ebf;" parent="1" vertex="1">
          <mxGeometry x="40" y="80" width="120" height="60" as="geometry" />
        </mxCell>
        <mxCell id="YMvfDlWYR4Z5YncBcECR-17" style="edgeStyle=orthogonalEdgeStyle;rounded=0;orthogonalLoop=1;jettySize=auto;html=1;entryX=1;entryY=0.5;entryDx=0;entryDy=0;entryPerimeter=0;" edge="1" parent="1" source="T1c_7D-QfAOjgBCOR89R-2" target="YMvfDlWYR4Z5YncBcECR-3">
          <mxGeometry relative="1" as="geometry">
            <Array as="points">
              <mxPoint x="630" y="100" />
              <mxPoint x="630" y="145" />
            </Array>
          </mxGeometry>
        </mxCell>
        <mxCell id="T1c_7D-QfAOjgBCOR89R-2" value="svc2" style="rounded=1;whiteSpace=wrap;html=1;fontStyle=1;fillColor=#d5e8d4;strokeColor=#82b366;" parent="1" vertex="1">
          <mxGeometry x="700" y="70" width="120" height="60" as="geometry" />
        </mxCell>
        <mxCell id="YMvfDlWYR4Z5YncBcECR-3" value="Svc.Bus" style="shape=cylinder3;whiteSpace=wrap;html=1;boundedLbl=1;backgroundOutline=1;size=15;fillColor=#f5f5f5;fontColor=#333333;strokeColor=#666666;fontStyle=1" vertex="1" parent="1">
          <mxGeometry x="260" y="110" width="330" height="70" as="geometry" />
        </mxCell>
        <mxCell id="YMvfDlWYR4Z5YncBcECR-6" value="Put" style="text;html=1;align=center;verticalAlign=middle;resizable=0;points=[];autosize=1;strokeColor=none;fillColor=none;" vertex="1" parent="1">
          <mxGeometry x="190" y="75" width="40" height="30" as="geometry" />
        </mxCell>
        <mxCell id="YMvfDlWYR4Z5YncBcECR-7" value="Listen" style="text;html=1;align=center;verticalAlign=middle;resizable=0;points=[];autosize=1;strokeColor=none;fillColor=none;" vertex="1" parent="1">
          <mxGeometry x="620" y="55" width="60" height="30" as="geometry" />
        </mxCell>
        <mxCell id="YMvfDlWYR4Z5YncBcECR-10" value="" style="shape=flexArrow;endArrow=classic;html=1;rounded=0;fillColor=#fff2cc;strokeColor=#d6b656;" edge="1" parent="1">
          <mxGeometry width="50" height="50" relative="1" as="geometry">
            <mxPoint x="230" y="230" as="sourcePoint" />
            <mxPoint x="580" y="230" as="targetPoint" />
          </mxGeometry>
        </mxCell>
        <mxCell id="YMvfDlWYR4Z5YncBcECR-11" value="T =&amp;gt; +++++++" style="text;html=1;align=center;verticalAlign=middle;resizable=0;points=[];autosize=1;strokeColor=none;fillColor=none;" vertex="1" parent="1">
          <mxGeometry x="280" y="245" width="100" height="30" as="geometry" />
        </mxCell>
        <mxCell id="YMvfDlWYR4Z5YncBcECR-15" style="edgeStyle=orthogonalEdgeStyle;rounded=0;orthogonalLoop=1;jettySize=auto;html=1;exitX=0;exitY=0.5;exitDx=0;exitDy=0;" edge="1" parent="1" source="YMvfDlWYR4Z5YncBcECR-13" target="YMvfDlWYR4Z5YncBcECR-3">
          <mxGeometry relative="1" as="geometry">
            <Array as="points">
              <mxPoint x="645" y="170" />
              <mxPoint x="645" y="150" />
            </Array>
          </mxGeometry>
        </mxCell>
        <mxCell id="YMvfDlWYR4Z5YncBcECR-13" value="svc3" style="rounded=1;whiteSpace=wrap;html=1;fontStyle=1;fillColor=#d5e8d4;strokeColor=#82b366;" vertex="1" parent="1">
          <mxGeometry x="700" y="150" width="120" height="60" as="geometry" />
        </mxCell>
        <mxCell id="YMvfDlWYR4Z5YncBcECR-16" style="edgeStyle=orthogonalEdgeStyle;rounded=0;orthogonalLoop=1;jettySize=auto;html=1;entryX=1;entryY=1;entryDx=0;entryDy=-15;entryPerimeter=0;" edge="1" parent="1" source="YMvfDlWYR4Z5YncBcECR-14" target="YMvfDlWYR4Z5YncBcECR-3">
          <mxGeometry relative="1" as="geometry">
            <Array as="points">
              <mxPoint x="630" y="245" />
              <mxPoint x="630" y="165" />
            </Array>
          </mxGeometry>
        </mxCell>
        <mxCell id="YMvfDlWYR4Z5YncBcECR-14" value="svc4" style="rounded=1;whiteSpace=wrap;html=1;fontStyle=1;fillColor=#d5e8d4;strokeColor=#82b366;" vertex="1" parent="1">
          <mxGeometry x="700" y="230" width="120" height="60" as="geometry" />
        </mxCell>
        <mxCell id="YMvfDlWYR4Z5YncBcECR-20" style="edgeStyle=orthogonalEdgeStyle;rounded=0;orthogonalLoop=1;jettySize=auto;html=1;exitX=0.5;exitY=1;exitDx=0;exitDy=0;" edge="1" parent="1" source="YMvfDlWYR4Z5YncBcECR-18" target="YMvfDlWYR4Z5YncBcECR-19">
          <mxGeometry relative="1" as="geometry" />
        </mxCell>
        <mxCell id="YMvfDlWYR4Z5YncBcECR-18" value="Added DB-record" style="text;html=1;strokeColor=none;fillColor=none;align=center;verticalAlign=middle;whiteSpace=wrap;rounded=0;" vertex="1" parent="1">
          <mxGeometry x="70" y="155" width="90" height="30" as="geometry" />
        </mxCell>
        <mxCell id="YMvfDlWYR4Z5YncBcECR-19" value="=&amp;gt; put &amp;gt; Q101 &amp;gt;&amp;gt; rec" style="text;html=1;strokeColor=none;fillColor=none;align=center;verticalAlign=middle;whiteSpace=wrap;rounded=0;" vertex="1" parent="1">
          <mxGeometry x="60" y="230" width="110" height="30" as="geometry" />
        </mxCell>
      </root>
    </mxGraphModel>
  </diagram>
</mxfile>
